<?xml version="1.0" standalone="no"?>
<!DOCTYPE svg PUBLIC "-//W3C//DTD SVG 20010904//EN"
 "http://www.w3.org/TR/2001/REC-SVG-20010904/DTD/svg10.dtd">
<svg version="1.0" xmlns="http://www.w3.org/2000/svg"
 width="512.000000pt" height="512.000000pt" viewBox="0 0 512.000000 512.000000"
 preserveAspectRatio="xMidYMid meet">
<metadata>
Created by potrace 1.14, written by Peter Selinger 2001-2017
</metadata>
<g transform="translate(0.000000,512.000000) scale(0.100000,-0.100000)"
fill="#000000" stroke="none">
<path d="M2385 4963 c-193 -23 -303 -45 -435 -90 -121 -41 -289 -125 -375
-189 l-80 -59 -550 -5 -550 -5 -67 -32 c-119 -56 -196 -146 -232 -274 -15 -50
-16 -223 -14 -1790 l3 -1734 32 -68 c43 -90 119 -169 202 -210 l66 -32 339 -3
339 -3 40 -35 c22 -18 45 -34 51 -34 6 0 27 -8 46 -18 91 -48 376 -143 540
-181 275 -64 694 -89 968 -57 295 35 570 129 777 268 l80 53 591 5 590 5 76
38 c124 61 205 171 227 308 14 84 15 3359 1 3443 -22 138 -110 255 -237 318
l-68 33 -468 3 -469 3 -26 31 c-43 50 -225 124 -514 207 -278 81 -488 112
-727 110 -69 -1 -139 -4 -156 -6z m330 -113 c206 -15 384 -51 620 -127 151
-48 365 -133 365 -146 0 -21 -80 -1025 -85 -1074 -4 -29 -10 -53 -14 -53 -5 0
-26 48 -46 108 -115 323 -229 518 -401 683 -166 159 -351 232 -594 233 -172 1
-288 -41 -407 -148 -120 -108 -177 -241 -177 -411 1 -195 54 -315 209 -471
162 -163 341 -287 710 -489 403 -222 614 -379 787 -585 152 -182 240 -351 281
-539 28 -131 30 -416 4 -539 -86 -394 -333 -700 -712 -882 -260 -124 -545
-177 -910 -166 -408 11 -735 80 -1072 228 l-93 40 1 42 c1 128 85 1120 95
1123 6 2 25 -36 43 -84 112 -299 281 -565 452 -714 199 -174 368 -246 604
-256 368 -16 622 143 701 438 24 92 22 279 -5 380 -74 284 -315 509 -910 848
-454 259 -661 428 -846 691 -129 183 -187 440 -165 730 28 363 186 658 465
868 80 61 275 159 386 195 143 47 344 79 534 85 22 1 103 -3 180 -8z m-1367
-362 c-175 -202 -281 -448 -308 -717 -10 -103 -11 -107 -70 -205 -255 -433
-339 -927 -239 -1421 48 -240 166 -512 309 -716 57 -81 80 -123 80 -144 -1
-47 -37 -496 -41 -499 -8 -7 -231 242 -304 338 -261 342 -430 774 -466 1184
-14 160 -5 505 16 632 63 378 223 741 468 1065 79 104 270 299 370 378 77 61
226 167 235 167 2 0 -20 -28 -50 -62z m2626 -111 c266 -208 503 -518 658 -861
58 -129 132 -359 164 -511 24 -116 27 -157 32 -377 5 -277 -5 -411 -44 -588
-151 -679 -574 -1253 -1134 -1535 l-55 -28 96 94 c112 110 167 180 238 305 92
163 138 296 161 467 9 69 19 95 61 170 114 197 188 375 232 552 46 184 52 239
52 485 0 201 -3 252 -22 350 -78 406 -245 725 -537 1027 l-104 109 19 229 c10
127 19 232 19 233 0 5 67 -44 164 -121z"/>
</g>
</svg>
